<svg width="32" height="32" viewBox="0 0 32 32" fill="none" xmlns="http://www.w3.org/2000/svg">
<circle cx="16" cy="16" r="16" fill="#383838"/>
<path d="M13.3557 24C13.3557 23.2188 12.7084 22.5714 11.9272 22.5714C11.1459 22.5714 10.4986 23.2188 10.4986 24C10.4986 24.7812 11.1459 25.4286 11.9272 25.4286C12.7084 25.4286 13.3557 24.7812 13.3557 24ZM23.3557 24C23.3557 23.2188 22.7084 22.5714 21.9272 22.5714C21.1459 22.5714 20.4986 23.2188 20.4986 24C20.4986 24.7812 21.1459 25.4286 21.9272 25.4286C22.7084 25.4286 23.3557 24.7812 23.3557 24ZM24.7843 11.8571C24.7843 11.4665 24.4607 11.1429 24.07 11.1429H10.666C10.5544 10.6071 10.5321 9.71429 9.78432 9.71429H6.92718C6.53655 9.71429 6.21289 10.0379 6.21289 10.4286C6.21289 10.8192 6.53655 11.1429 6.92718 11.1429H9.20396L11.1794 20.3281C11.0008 20.6741 10.4986 21.5112 10.4986 21.8571C10.4986 22.2478 10.8223 22.5714 11.2129 22.5714H22.6415C23.0321 22.5714 23.3557 22.2478 23.3557 21.8571C23.3557 21.4665 23.0321 21.1429 22.6415 21.1429H12.3736C12.4852 20.9196 12.6415 20.6853 12.6415 20.4286C12.6415 20.1607 12.5522 19.904 12.4964 19.6473L24.1482 18.2857C24.5053 18.2411 24.7843 17.9286 24.7843 17.5714V11.8571Z" fill="white"/>
</svg>
