<svg width="32" height="32" viewBox="0 0 32 32" fill="none" xmlns="http://www.w3.org/2000/svg">
<circle cx="16" cy="16" r="16" fill="#383838"/>
<path d="M24.5686 21.8571C24.5686 21.4665 24.245 21.1429 23.8544 21.1429H8.14007C7.74944 21.1429 7.42578 21.4665 7.42578 21.8571V23.2857C7.42578 23.6763 7.74944 24 8.14007 24H23.8544C24.245 24 24.5686 23.6763 24.5686 23.2857V21.8571ZM24.5686 16.1429C24.5686 15.7522 24.245 15.4286 23.8544 15.4286H8.14007C7.74944 15.4286 7.42578 15.7522 7.42578 16.1429V17.5714C7.42578 17.9621 7.74944 18.2857 8.14007 18.2857H23.8544C24.245 18.2857 24.5686 17.9621 24.5686 17.5714V16.1429ZM24.5686 10.4286C24.5686 10.0379 24.245 9.71429 23.8544 9.71429H8.14007C7.74944 9.71429 7.42578 10.0379 7.42578 10.4286V11.8571C7.42578 12.2478 7.74944 12.5714 8.14007 12.5714H23.8544C24.245 12.5714 24.5686 12.2478 24.5686 11.8571V10.4286Z" fill="white"/>
</svg>
